<svg xmlns="http://www.w3.org/2000/svg" version="1" width="512" height="512"><path d="M352 341h-33l-8-34c-6-21-11-43-12-59a128 128 0 0 0 70-179c3-9 4-18 4-26 0-4-2-8-5-9L315 2c-4-2-8-3-11-1l-5 7a128 128 0 0 0-164 164c-2 0-4 2-6 4-2 3-1 8 0 11l32 53c2 3 6 5 10 5 8 0 17-1 26-4l16 7c-1 16-6 38-12 59l-8 34h-33a11 11 0 0 0-10 15c1 3 22 48 70 65-25 18-45 48-48 53l-1 6v21c0 6 4 11 10 11h150c6 0 10-5 10-11v-21l-1-6c-3-5-23-35-48-53 48-17 69-62 70-65s1-7-1-10-5-5-9-5zm11-213a107 107 0 0 1-136 102c53-25 106-81 131-132 3 9 5 20 5 30zm-66 213h-82l7-29c5-19 10-41 12-58a127 127 0 0 0 44 0c2 17 7 39 12 58l7 29zM256 21c14 0 27 3 40 8-15 52-82 125-139 139a107 107 0 0 1 99-147zm-79 203l-21-34c69-13 148-99 162-162l34 21c-6 63-103 169-175 175zm143 259v8H192v-8c15-23 44-56 64-56s49 33 64 56zm-64-78c-40 0-65-25-77-42h154a95 95 0 0 1-77 42z" fill="#FFDA44"/></svg>