<svg version="1" xmlns="http://www.w3.org/2000/svg" width="304" height="304" viewBox="0 0 228.000000 228.000000"><path d="M110.5 1c-3.5 1.3-3.5 1.4-9.3 18-7 19.9-9.4 26.7-10.3 29.1l-1 2.6-6.7-3.2C42.9 27.7 41.8 27.3 37.1 32.6c-2.5 2.7-2.7 3.6-2.5 10.4.2 6.4.7 8.6 3.9 15 9.1 18.3 13.3 28 12.4 28.6-1 .6-26.2 9.6-33.5 11.9-6.6 2.1-10.4 4.4-11.3 6.8-.4 1.2-.8 5.2-.9 8.8-.1 10 .5 10.4 24.8 18.9 11.2 3.9 20.8 7.4 21.2 7.6.4.3-1.8 5.7-4.9 12.2-12.1 25.7-11.9 25.1-11.8 32.5.1 5.9.5 7.1 2.8 9.5 3.9 3.9 7.5 3.3 21.2-3.3C84.6 179 89.3 176.9 90 177.7c.7.7 5.5 13.9 14.7 40.3 2.6 7.4 6.7 10.1 12.9 8.4 3-.8 4.7-4.3 11.5-23.6 8.9-25.6 9-25.8 9.9-25.8.4 0 9.2 4.1 19.6 9.1 21.8 10.6 25.8 12 29.6 10.7 4.2-1.5 5.5-4.5 5.6-12.3 0-6.6-.4-7.8-7-21.5-7.6-15.9-10.2-21.9-9.7-22.4.2-.1 9.8-3.6 21.3-7.7 11.6-4.1 21.8-8.3 22.8-9.4 1.8-1.8 1.9-3.2 1.8-15.4 0-2.9-2.5-5.9-6-7.3-3.5-1.4-29.4-10.6-35.2-12.5-2.7-.9-4.8-2-4.8-2.4 0-.5 2-5.1 4.4-10.1 13.1-27.9 12.4-25.8 12.4-33.2.1-7.8-1.4-10.9-5.8-12.5-4-1.3-5.4-.8-28.3 10.3-10.9 5.3-20.2 9.6-20.7 9.6-1 0-.6.9-8.5-21.5-3.5-9.9-7.1-19.9-8-22.1-2.2-5.6-6.7-7.6-12-5.4zm11.6 65.5c5.7 16 8.1 16.8 25.4 8.5 6.6-3.2 12.1-5.6 12.3-5.5.1.1-1.6 4.1-3.9 8.8-3.6 7.6-4.1 9.4-4.1 15.8 0 9.7 1.3 11.3 12.7 15.6 5 1.8 9.4 3.4 9.9 3.6.5.2-3.5 1.9-9 3.8-8.2 3-10.3 4.1-12.2 7-1.6 2.4-2.1 4.1-1.6 5.9.7 2.9.8 3.7.1 6.6-.3 1.3 1.2 5.7 3.7 11 2.4 4.9 4.2 9 4.1 9.2-.2.2-5.1-1.9-11-4.7-14.1-6.7-16.4-7.1-20.3-3.4-2.9 2.7-4.2 5.7-10.8 24.6-1.5 4.3-3 7.4-3.4 7-.4-.4-3.1-7.4-6-15.5s-6-15.4-6.9-16.1c-3.8-3.3-7.2-2.7-19.6 3.3-6.6 3.1-12.1 5.6-12.3 5.5-.1-.1 1.6-4 3.7-8.7 3.5-7.5 4-9.4 4-16 0-9.8-1.3-11.4-13.8-15.8l-9.3-3.3 3.4-1.3c1.8-.6 6.1-2.2 9.6-3.4 8.5-3.1 10-5.2 10-14.3-.1-6.4-.5-8.1-4.4-16-5-10.2-5.4-10 8.8-3 17 8.4 19.4 7.2 26.3-12.2 7.1-20.1 6.3-19 9-12 1.3 3.3 3.8 10 5.6 15z"/></svg>